<?xml version="1.0" encoding="UTF-8" standalone="no"?>
<!DOCTYPE svg PUBLIC "-//W3C//DTD SVG 1.0//EN" "http://www.w3.org/TR/2001/PR-SVG-20010719/DTD/svg10.dtd">
<svg width="24cm" height="9cm" viewBox="139 98 475 165" xmlns="http://www.w3.org/2000/svg" xmlns:xlink="http://www.w3.org/1999/xlink">
  <g>
    <rect style="fill: #ffffff" x="140" y="100" width="81.9" height="36"/>
    <rect style="fill: none; fill-opacity:0; stroke-width: 2; stroke: #000000" x="140" y="100" width="81.9" height="36"/>
    <text font-size="12.7998" style="fill: #000000;text-anchor:middle;font-family:monospace;font-style:normal;font-weight:normal" x="180.95" y="122">Journal</text>
  </g>
  <g>
    <polygon style="fill: #ffffff" points="323,219.03 393.05,177 463.1,219.03 393.05,261.06 "/>
    <polygon style="fill: none; fill-opacity:0; stroke-width: 2; stroke: #000000" points="323,219.03 393.05,177 463.1,219.03 393.05,261.06 "/>
    <text font-size="12.7998" style="fill: #000000;text-anchor:end;font-family:monospace;font-style:normal;font-weight:normal" x="317" y="213.03"></text>
    <text font-size="12.7998" style="fill: #000000;text-anchor:start;font-family:monospace;font-style:normal;font-weight:normal" x="469.1" y="213.03"></text>
    <text font-size="12.7998" style="fill: #000000;text-anchor:middle;font-family:monospace;font-style:normal;font-weight:normal" x="393.05" y="223.03">Associe Depot</text>
  </g>
  <g>
    <line style="fill: none; fill-opacity:0; stroke-width: 2; stroke: #000000" x1="180.25" y1="200" x2="180.816" y2="148.235"/>
    <polygon style="fill: #ffffff" points="185.816,148.29 180.926,138.236 175.816,148.181 "/>
    <polygon style="fill: none; fill-opacity:0; stroke-width: 2; stroke: #000000" points="185.816,148.29 180.926,138.236 175.816,148.181 "/>
  </g>
  <g>
    <rect style="fill: #ffffff" x="147" y="200" width="66.5" height="36"/>
    <rect style="fill: none; fill-opacity:0; stroke-width: 2; stroke: #000000" x="147" y="200" width="66.5" height="36"/>
    <text font-size="12.7998" style="fill: #000000;text-anchor:middle;font-family:monospace;font-style:normal;font-weight:normal" x="180.25" y="222">Depot</text>
  </g>
  <line style="fill: none; fill-opacity:0; stroke-width: 2; stroke: #000000" x1="213.5" y1="218" x2="323" y2="219.03"/>
  <g>
    <rect style="fill: #ffffff" x="352.9" y="99" width="81.9" height="36"/>
    <rect style="fill: none; fill-opacity:0; stroke-width: 2; stroke: #000000" x="352.9" y="99" width="81.9" height="36"/>
    <text font-size="12.7998" style="fill: #000000;text-anchor:middle;font-family:monospace;font-style:normal;font-weight:normal" x="393.85" y="121">Article</text>
  </g>
  <line style="fill: none; fill-opacity:0; stroke-width: 2; stroke: #000000" x1="393.85" y1="135" x2="393.46" y2="176.01"/>
  <g>
    <rect style="fill: #ffffff" x="499.9" y="101" width="112.7" height="36"/>
    <rect style="fill: none; fill-opacity:0; stroke-width: 2; stroke: #000000" x="499.9" y="101" width="112.7" height="36"/>
    <text font-size="12.7998" style="fill: #000000;text-anchor:middle;font-family:monospace;font-style:normal;font-weight:normal" x="556.25" y="123">Fournisseur</text>
  </g>
  <line style="fill: none; fill-opacity:0; stroke-width: 2; stroke: #000000" x1="463.1" y1="219.03" x2="556.25" y2="137"/>
</svg>
