<?xml version="1.0" encoding="UTF-8" standalone="no"?>
<!DOCTYPE svg PUBLIC "-//W3C//DTD SVG 1.0//EN" "http://www.w3.org/TR/2001/PR-SVG-20010719/DTD/svg10.dtd">
<svg width="59cm" height="26cm" viewBox="37 28 1174 508" xmlns="http://www.w3.org/2000/svg" xmlns:xlink="http://www.w3.org/1999/xlink">
  <g>
    <rect style="fill: #ffffff" x="731.9" y="499" width="66.5" height="36"/>
    <rect style="fill: none; fill-opacity:0; stroke-width: 2; stroke: #000000" x="731.9" y="499" width="66.5" height="36"/>
    <text font-size="12.8" style="fill: #000000;text-anchor:middle;font-family:monospace;font-style:normal;font-weight:normal" x="765.15" y="521">Depôt</text>
  </g>
  <g>
    <polygon style="fill: #ffffff" points="361,424.27 446.45,373 531.9,424.27 446.45,475.54 "/>
    <polygon style="fill: none; fill-opacity:0; stroke-width: 2; stroke: #000000" points="361,424.27 446.45,373 531.9,424.27 446.45,475.54 "/>
    <text font-size="12.7998" style="fill: #000000;text-anchor:end;font-family:monospace;font-style:normal;font-weight:normal" x="355" y="418.27">n</text>
    <text font-size="12.7998" style="fill: #000000;text-anchor:start;font-family:monospace;font-style:normal;font-weight:normal" x="537.9" y="418.27">1</text>
    <text font-size="12.7998" style="fill: #000000;text-anchor:middle;font-family:monospace;font-style:normal;font-weight:normal" x="446.45" y="428.27">Concerne articles</text>
  </g>
  <g>
    <rect style="fill: #ffffff" x="38.9" y="405" width="81.9" height="36"/>
    <rect style="fill: none; fill-opacity:0; stroke-width: 2; stroke: #000000" x="38.9" y="405" width="81.9" height="36"/>
    <text font-size="12.8" style="fill: #000000;text-anchor:middle;font-family:monospace;font-style:normal;font-weight:normal" x="79.85" y="427">Article</text>
  </g>
  <g>
    <rect style="fill: #ffffff" x="513.9" y="191" width="66.5" height="36"/>
    <rect style="fill: none; fill-opacity:0; stroke-width: 2; stroke: #000000" x="513.9" y="191" width="66.5" height="36"/>
    <text font-size="12.8" style="fill: #000000;text-anchor:middle;font-family:monospace;font-style:normal;font-weight:normal" x="547.15" y="213">Vente</text>
  </g>
  <g>
    <rect style="fill: #ffffff" x="600.9" y="499" width="81.9" height="36"/>
    <rect style="fill: none; fill-opacity:0; stroke-width: 2; stroke: #000000" x="600.9" y="499" width="81.9" height="36"/>
    <text font-size="12.8" style="fill: #000000;text-anchor:middle;font-family:monospace;font-style:normal;font-weight:normal" x="641.85" y="521">Retrait</text>
  </g>
  <g>
    <rect style="fill: #ffffff" x="641.9" y="81" width="128.1" height="36"/>
    <rect style="fill: none; fill-opacity:0; stroke-width: 2; stroke: #000000" x="641.9" y="81" width="128.1" height="36"/>
    <text font-size="12.8" style="fill: #000000;text-anchor:middle;font-family:monospace;font-style:normal;font-weight:normal" x="705.95" y="103">Remboursement</text>
  </g>
  <g>
    <line style="fill: none; fill-opacity:0; stroke-width: 2; stroke: #000000" x1="705.15" y1="405.5" x2="705.802" y2="238.736"/>
    <polygon style="fill: #ffffff" points="710.802,238.756 705.841,228.736 700.802,238.716 "/>
    <polygon style="fill: none; fill-opacity:0; stroke-width: 2; stroke: #000000" points="710.802,238.756 705.841,228.736 700.802,238.716 "/>
  </g>
  <g>
    <rect style="fill: #ffffff" x="664.9" y="190.5" width="81.9" height="36"/>
    <rect style="fill: none; fill-opacity:0; stroke-width: 2; stroke: #000000" x="664.9" y="190.5" width="81.9" height="36"/>
    <text font-size="12.8" style="fill: #000000;text-anchor:middle;font-family:monospace;font-style:normal;font-weight:normal" x="705.85" y="212.5">Journal</text>
  </g>
  <g>
    <line style="fill: none; fill-opacity:0; stroke-width: 2; stroke: #000000" x1="580.4" y1="209" x2="652.664" y2="208.572"/>
    <polygon style="fill: #ffffff" points="652.694,213.572 662.664,208.513 652.635,203.572 "/>
    <polygon style="fill: none; fill-opacity:0; stroke-width: 2; stroke: #000000" points="652.694,213.572 662.664,208.513 652.635,203.572 "/>
  </g>
  <g>
    <rect style="fill: #ffffff" x="594.9" y="405.5" width="220.5" height="36"/>
    <rect style="fill: none; fill-opacity:0; stroke-width: 2; stroke: #000000" x="594.9" y="405.5" width="220.5" height="36"/>
    <text font-size="12.8" style="fill: #000000;text-anchor:middle;font-family:monospace;font-style:normal;font-weight:normal" x="705.15" y="427.5">Journal-Stock Fournisseur</text>
  </g>
  <g>
    <line style="fill: none; fill-opacity:0; stroke-width: 2; stroke: #000000" x1="765.15" y1="499" x2="713.984" y2="449.966"/>
    <polygon style="fill: #ffffff" points="717.444,446.356 706.764,443.047 710.525,453.576 "/>
    <polygon style="fill: none; fill-opacity:0; stroke-width: 2; stroke: #000000" points="717.444,446.356 706.764,443.047 710.525,453.576 "/>
  </g>
  <g>
    <line style="fill: none; fill-opacity:0; stroke-width: 2; stroke: #000000" x1="641.85" y1="499" x2="696.093" y2="449.727"/>
    <polygon style="fill: #ffffff" points="699.455,453.428 703.495,443.003 692.731,446.026 "/>
    <polygon style="fill: none; fill-opacity:0; stroke-width: 2; stroke: #000000" points="699.455,453.428 703.495,443.003 692.731,446.026 "/>
  </g>
  <g>
    <polygon style="fill: #ffffff" points="857.9,423.7 954.9,365.5 1051.9,423.7 954.9,481.9 "/>
    <polygon style="fill: none; fill-opacity:0; stroke-width: 2; stroke: #000000" points="857.9,423.7 954.9,365.5 1051.9,423.7 954.9,481.9 "/>
    <text font-size="12.7998" style="fill: #000000;text-anchor:end;font-family:monospace;font-style:normal;font-weight:normal" x="851.9" y="417.7">1</text>
    <text font-size="12.7998" style="fill: #000000;text-anchor:start;font-family:monospace;font-style:normal;font-weight:normal" x="1057.9" y="417.7">1</text>
    <text font-size="12.7998" style="fill: #000000;text-anchor:middle;font-family:monospace;font-style:normal;font-weight:normal" x="954.9" y="427.7">Concerne fournisseur</text>
  </g>
  <g>
    <rect style="fill: #ffffff" x="1097.9" y="405.5" width="112.7" height="36"/>
    <rect style="fill: none; fill-opacity:0; stroke-width: 2; stroke: #000000" x="1097.9" y="405.5" width="112.7" height="36"/>
    <text font-size="12.8" style="fill: #000000;text-anchor:middle;font-family:monospace;font-style:normal;font-weight:normal" x="1154.25" y="427.5">Fournisseur</text>
  </g>
  <line style="fill: none; fill-opacity:0; stroke-width: 2; stroke: #000000" x1="1051.9" y1="423.7" x2="1097.9" y2="423.5"/>
  <line style="fill: none; fill-opacity:0; stroke-width: 2; stroke: #000000" x1="815.4" y1="423.5" x2="857.9" y2="423.7"/>
  <g>
    <polygon style="fill: #ffffff" points="312.9,209.15 390.65,162.5 468.4,209.15 390.65,255.8 "/>
    <polygon style="fill: none; fill-opacity:0; stroke-width: 2; stroke: #000000" points="312.9,209.15 390.65,162.5 468.4,209.15 390.65,255.8 "/>
    <text font-size="12.7998" style="fill: #000000;text-anchor:end;font-family:monospace;font-style:normal;font-weight:normal" x="306.9" y="203.15">1</text>
    <text font-size="12.7998" style="fill: #000000;text-anchor:start;font-family:monospace;font-style:normal;font-weight:normal" x="474.4" y="203.15">1</text>
    <text font-size="12.7998" style="fill: #000000;text-anchor:middle;font-family:monospace;font-style:normal;font-weight:normal" x="390.65" y="213.15">Concerne client</text>
  </g>
  <line style="fill: none; fill-opacity:0; stroke-width: 2; stroke: #000000" x1="468.4" y1="209.15" x2="513.9" y2="209"/>
  <g>
    <rect style="fill: #ffffff" x="196.9" y="191.5" width="74.2" height="36"/>
    <rect style="fill: none; fill-opacity:0; stroke-width: 2; stroke: #000000" x="196.9" y="191.5" width="74.2" height="36"/>
    <text font-size="12.8" style="fill: #000000;text-anchor:middle;font-family:monospace;font-style:normal;font-weight:normal" x="234" y="213.5">Client</text>
  </g>
  <line style="fill: none; fill-opacity:0; stroke-width: 2; stroke: #000000" x1="271.1" y1="209.5" x2="312.9" y2="209.15"/>
  <g>
    <line style="fill: none; fill-opacity:0; stroke-width: 2; stroke: #000000" x1="705.95" y1="117" x2="705.867" y2="178.264"/>
    <polygon style="fill: #ffffff" points="700.867,178.257 705.853,188.264 710.867,178.271 "/>
    <polygon style="fill: none; fill-opacity:0; stroke-width: 2; stroke: #000000" points="700.867,178.257 705.853,188.264 710.867,178.271 "/>
  </g>
  <g>
    <polygon style="fill: #ffffff" points="921.9,99.25 1038.15,29.5 1154.4,99.25 1038.15,169 "/>
    <polygon style="fill: none; fill-opacity:0; stroke-width: 2; stroke: #000000" points="921.9,99.25 1038.15,29.5 1154.4,99.25 1038.15,169 "/>
    <text font-size="12.7998" style="fill: #000000;text-anchor:end;font-family:monospace;font-style:normal;font-weight:normal" x="915.9" y="93.25">1</text>
    <text font-size="12.7998" style="fill: #000000;text-anchor:start;font-family:monospace;font-style:normal;font-weight:normal" x="1160.4" y="93.25">1</text>
    <text font-size="12.7998" style="fill: #000000;text-anchor:middle;font-family:monospace;font-style:normal;font-weight:normal" x="1038.15" y="103.25">Remboursement fournisseur</text>
  </g>
  <line style="fill: none; fill-opacity:0; stroke-width: 2; stroke: #000000" x1="770" y1="99" x2="921.9" y2="99.25"/>
  <line style="fill: none; fill-opacity:0; stroke-width: 2; stroke: #000000" x1="1154.25" y1="405.5" x2="1154.4" y2="99.25"/>
  <g>
    <polygon style="fill: #ffffff" points="187.9,98.32 292.6,35.5 397.3,98.32 292.6,161.14 "/>
    <polygon style="fill: none; fill-opacity:0; stroke-width: 2; stroke: #000000" points="187.9,98.32 292.6,35.5 397.3,98.32 292.6,161.14 "/>
    <text font-size="12.7998" style="fill: #000000;text-anchor:end;font-family:monospace;font-style:normal;font-weight:normal" x="181.9" y="92.32">n</text>
    <text font-size="12.7998" style="fill: #000000;text-anchor:start;font-family:monospace;font-style:normal;font-weight:normal" x="403.3" y="92.32">1</text>
    <text font-size="12.7998" style="fill: #000000;text-anchor:middle;font-family:monospace;font-style:normal;font-weight:normal" x="292.6" y="102.32">Remboursement articles</text>
  </g>
  <line style="fill: none; fill-opacity:0; stroke-width: 2; stroke: #000000" x1="531.9" y1="424.27" x2="594.9" y2="423.5"/>
  <line style="fill: none; fill-opacity:0; stroke-width: 2; stroke: #000000" x1="120.8" y1="423" x2="361" y2="424.27"/>
  <g>
    <polygon style="fill: #ffffff" points="368.9,305.15 446.65,258.5 524.4,305.15 446.65,351.8 "/>
    <polygon style="fill: none; fill-opacity:0; stroke-width: 2; stroke: #000000" points="368.9,305.15 446.65,258.5 524.4,305.15 446.65,351.8 "/>
    <text font-size="12.7998" style="fill: #000000;text-anchor:end;font-family:monospace;font-style:normal;font-weight:normal" x="362.9" y="299.15">n</text>
    <text font-size="12.7998" style="fill: #000000;text-anchor:start;font-family:monospace;font-style:normal;font-weight:normal" x="530.4" y="299.15">1</text>
    <text font-size="12.7998" style="fill: #000000;text-anchor:middle;font-family:monospace;font-style:normal;font-weight:normal" x="446.65" y="309.15">Articles vendus</text>
  </g>
  <line style="fill: none; fill-opacity:0; stroke-width: 2; stroke: #000000" x1="79.85" y1="405" x2="368.9" y2="305.15"/>
  <line style="fill: none; fill-opacity:0; stroke-width: 2; stroke: #000000" x1="524.4" y1="305.15" x2="547.15" y2="227"/>
  <line style="fill: none; fill-opacity:0; stroke-width: 2; stroke: #000000" x1="397.3" y1="98.32" x2="641.9" y2="99"/>
  <line style="fill: none; fill-opacity:0; stroke-width: 2; stroke: #000000" x1="79.85" y1="405" x2="187.9" y2="98.32"/>
</svg>
